<?xml version="1.0" standalone="no"?>
<!DOCTYPE svg PUBLIC "-//W3C//DTD SVG 20010904//EN"
 "http://www.w3.org/TR/2001/REC-SVG-20010904/DTD/svg10.dtd">
<svg version="1.0" xmlns="http://www.w3.org/2000/svg"
 width="260.000000pt" height="260.000000pt" viewBox="0 0 260.000000 260.000000"
 preserveAspectRatio="xMidYMid meet">
<metadata>
Created by potrace 1.14, written by Peter Selinger 2001-2017
</metadata>
<g transform="translate(0.000000,260.000000) scale(0.100000,-0.100000)"
fill="#000000" stroke="none">
<path d="M2504 2465 c-4 -8 -10 -12 -15 -9 -5 3 -9 -2 -9 -10 0 -9 -5 -16 -11
-16 -6 0 -8 10 -5 23 3 12 3 16 0 9 -3 -6 -10 -10 -15 -6 -5 3 -12 -1 -15 -10
-3 -8 -13 -12 -22 -9 -15 4 -15 3 -2 -6 11 -8 18 -7 28 6 6 9 12 12 12 6 0
-11 -32 -43 -44 -43 -4 0 -4 6 0 13 4 6 -2 3 -14 -7 -22 -19 -30 -32 -13 -22
5 3 11 -1 14 -8 4 -10 0 -13 -14 -11 -15 3 -19 0 -15 -10 3 -8 3 -15 0 -15 -2
0 -8 10 -13 22 l-8 22 -5 -22 c-4 -12 -2 -20 3 -16 5 3 9 1 9 -5 0 -5 -5 -13
-10 -16 -6 -4 -8 -10 -5 -15 3 -4 -3 -7 -12 -6 -10 0 -18 -4 -18 -11 0 -6 -4
-15 -9 -20 -5 -5 -6 -3 -2 5 4 6 2 12 -3 12 -6 0 -11 -7 -11 -16 0 -14 -2 -15
-17 -3 -15 13 -15 12 -5 -8 17 -30 16 -32 -16 -29 -21 3 -28 0 -29 -14 -1 -13
3 -17 13 -13 7 3 11 10 7 16 -4 6 -1 7 7 2 10 -6 10 -11 -3 -20 -9 -7 -13 -16
-9 -21 4 -5 -2 -1 -14 9 -19 16 -23 16 -34 2 -7 -8 -16 -12 -21 -9 -5 3 -9 2
-8 -3 4 -22 -3 -32 -18 -27 -14 5 -15 4 -4 -4 8 -6 20 -8 28 -5 7 3 13 0 13
-7 0 -6 -4 -8 -10 -5 -5 3 -10 1 -10 -5 0 -8 -6 -8 -20 0 -16 8 -20 8 -18 -2
2 -7 -2 -12 -9 -11 -6 1 -10 -8 -9 -21 2 -14 -7 -32 -22 -47 -14 -13 -23 -19
-19 -13 4 7 1 14 -7 17 -10 4 -12 0 -8 -16 5 -20 4 -21 -13 -7 -17 14 -18 14
-5 -10 12 -22 11 -24 -2 -13 -12 11 -19 8 -39 -14 -13 -14 -18 -23 -10 -18 9
5 12 3 9 -5 -6 -19 -25 -24 -31 -8 -2 7 -3 5 -1 -5 1 -11 -3 -17 -14 -15 -9 2
-17 -3 -18 -9 -3 -26 -5 -28 -14 -13 -7 11 -9 9 -8 -10 1 -14 6 -32 12 -40 7
-9 2 -8 -11 3 -14 12 -23 15 -28 8 -3 -6 0 -14 8 -17 12 -4 11 -10 -7 -28 -11
-12 -27 -20 -35 -17 -10 3 -12 0 -6 -8 6 -10 3 -11 -15 -1 -20 11 -21 10 -9
-12 11 -20 11 -22 -3 -10 -13 10 -18 10 -24 1 -4 -8 -3 -9 4 -5 7 4 12 3 12
-3 0 -5 -5 -13 -10 -16 -6 -4 -7 -11 -4 -17 4 -6 2 -8 -3 -5 -6 4 -16 0 -23
-8 -7 -8 -18 -15 -24 -15 -6 0 3 11 19 25 17 13 26 24 22 25 -4 0 -20 -11 -34
-24 -15 -14 -30 -23 -34 -20 -9 5 -6 -23 4 -32 10 -11 8 -24 -4 -24 -5 0 -7 4
-4 10 3 6 -4 9 -19 8 -13 -1 -23 -6 -20 -10 2 -4 -4 -12 -13 -18 -15 -10 -15
-11 -1 -6 20 6 30 -15 16 -35 -8 -11 -9 -10 -4 3 4 14 0 17 -17 14 -15 -2 -21
-9 -19 -22 2 -18 2 -18 -14 1 l-17 20 8 -20 c4 -11 9 -26 12 -32 6 -16 -13
-17 -23 -1 -5 7 -3 8 6 3 9 -5 11 -4 6 4 -6 8 -12 9 -20 2 -7 -6 -15 -9 -17
-6 -3 2 -6 -5 -6 -17 -2 -20 -1 -20 12 -2 13 18 14 18 15 2 0 -10 -3 -18 -7
-19 -5 0 -18 -2 -30 -3 -13 -2 -26 -6 -30 -11 -5 -4 -1 -6 7 -3 11 4 16 0 16
-12 0 -10 -4 -17 -7 -14 -4 2 -15 -6 -23 -18 -18 -26 -44 -32 -66 -15 -9 7 -7
3 3 -10 11 -13 26 -19 35 -16 13 4 14 3 3 -5 -7 -5 -18 -16 -23 -23 -8 -11 -9
-10 -4 4 3 9 2 17 -2 18 -4 0 -14 2 -23 4 -9 1 -16 -3 -16 -11 0 -9 4 -10 12
-4 7 6 11 3 11 -10 0 -10 -4 -16 -8 -14 -4 3 -8 -1 -8 -8 0 -9 -3 -9 -10 2 -8
13 -12 12 -27 -4 -10 -10 -12 -16 -5 -12 6 4 12 2 12 -4 0 -6 5 -8 12 -4 7 4
8 3 4 -5 -4 -6 -11 -9 -16 -6 -7 4 -22 -18 -24 -37 -1 -3 -4 -10 -8 -14 -4 -3
-6 2 -4 12 2 11 -1 28 -5 39 -9 19 -9 18 -5 -2 6 -31 -26 -67 -44 -50 -8 7 -5
-1 5 -18 l18 -30 -23 20 -23 20 12 -22 c17 -32 13 -39 -8 -14 -16 18 -20 19
-25 6 -3 -9 -2 -14 3 -11 5 3 11 -1 14 -8 4 -11 0 -13 -16 -10 -26 5 -40 -15
-24 -35 8 -10 8 -13 1 -8 -7 4 -14 0 -17 -7 -3 -8 -2 -17 4 -20 5 -2 4 -3 -3
-1 -7 1 -12 8 -10 15 3 11 0 11 -12 1 -8 -7 -12 -19 -9 -27 5 -15 -8 -19 -21
-7 -11 11 -30 10 -39 -2 -5 -6 -6 -2 -3 9 7 20 -9 46 -28 46 -6 0 -4 -5 4 -10
11 -7 8 -8 -13 -6 -15 1 -30 6 -35 11 -4 4 -2 6 3 2 6 -3 21 1 35 10 14 8 17
12 7 9 -12 -4 -21 2 -28 17 l-10 22 5 -22 c2 -13 0 -23 -5 -23 -8 0 -14 32 -9
55 1 6 -4 4 -11 -2 -16 -16 -29 -17 -29 -2 0 5 5 7 10 4 6 -3 10 -1 10 6 0 6
-8 9 -20 6 -11 -3 -20 -1 -20 3 0 5 8 11 17 13 11 3 7 5 -9 6 -31 1 -35 10
-15 30 10 11 10 13 0 7 -8 -4 -13 -2 -13 6 0 10 -2 10 -9 -1 -7 -11 -14 -9
-34 11 -14 14 -28 24 -30 22 -2 -2 -4 3 -4 13 0 12 6 9 22 -11 16 -21 25 -25
30 -16 5 8 4 11 -3 6 -6 -3 -13 3 -17 14 -3 11 -11 20 -16 20 -6 0 -7 6 -3 13
5 8 2 7 -9 -2 -20 -16 -25 -13 -30 20 -3 16 -10 23 -22 21 -11 -2 -15 1 -10
10 3 7 -1 4 -9 -6 -18 -23 -21 -14 -5 16 8 15 8 19 0 14 -6 -4 -11 -2 -11 4 0
6 -6 10 -12 9 -29 -3 -37 2 -31 18 6 15 7 15 15 -3 8 -18 8 -18 5 1 -1 11 -7
20 -12 20 -17 0 -36 16 -30 26 7 10 -24 1 -42 -13 -7 -6 -14 -4 -19 3 -4 7 -3
9 2 6 5 -3 21 3 34 13 l25 19 -24 -6 c-20 -5 -23 -3 -18 10 4 10 2 16 -6 14
-7 -1 -11 3 -10 10 2 7 -4 10 -11 7 -9 -3 -12 -13 -9 -22 4 -9 3 -14 -1 -10
-7 6 -14 30 -15 57 -1 11 -4 11 -18 0 -15 -12 -16 -12 -10 5 5 13 3 17 -6 13
-7 -3 -21 1 -30 8 -16 11 -16 13 -2 19 11 4 14 2 9 -6 -5 -7 -3 -8 6 -3 9 5
11 4 6 -3 -11 -18 0 -14 15 5 8 10 9 14 2 10 -6 -4 -14 -3 -18 3 -4 6 -11 8
-16 5 -5 -4 -9 -2 -9 2 0 5 -6 17 -13 28 -11 14 -16 15 -22 5 -6 -9 -4 -11 5
-5 9 6 11 4 5 -4 -5 -9 -10 -10 -18 -2 -7 7 -6 15 3 26 7 8 10 16 6 16 -3 1
-10 3 -16 4 -5 1 -17 3 -25 4 -8 0 -15 8 -15 17 0 8 -4 12 -10 9 -5 -3 -10 -2
-10 4 0 5 6 12 13 15 6 3 -1 3 -16 1 -23 -3 -26 -1 -18 9 15 18 1 29 -17 13
-13 -10 -15 -9 -9 7 5 13 3 17 -7 13 -10 -4 -13 -1 -9 9 3 9 -1 14 -12 14 -9
0 -14 4 -10 9 3 5 1 12 -5 16 -5 3 -10 2 -10 -2 0 -5 -9 -9 -20 -9 -27 0 -25
4 12 21 20 8 25 13 13 12 -12 -1 -19 3 -17 11 1 8 -2 11 -8 7 -6 -3 -8 -11 -5
-16 4 -5 1 -9 -6 -9 -6 0 -9 8 -6 20 3 11 0 23 -5 27 -7 3 -8 1 -4 -5 4 -7 2
-12 -3 -12 -10 0 -13 7 -10 26 1 13 -26 23 -46 18 -16 -4 -15 -2 4 9 20 12 21
15 7 20 -10 4 -15 3 -11 -3 3 -6 1 -10 -4 -10 -6 0 -11 7 -11 16 0 11 -6 14
-22 9 -21 -5 -21 -5 2 10 23 15 23 15 3 10 -16 -5 -23 -2 -23 8 0 8 -7 18 -16
21 -8 3 -12 10 -9 16 7 11 4 12 -37 14 -18 1 -28 -3 -28 -11 0 -11 -5 -11 -22
-3 -22 11 -22 11 -4 -4 11 -9 29 -14 40 -11 14 4 12 0 -7 -10 -15 -9 -32 -13
-37 -10 -5 3 -11 1 -14 -4 -4 -5 5 -8 19 -6 14 1 28 -2 32 -8 3 -6 1 -7 -5 -3
-7 4 -12 1 -12 -9 0 -10 5 -13 12 -9 7 4 8 3 4 -4 -4 -6 -14 -9 -24 -6 -9 4
-4 -3 12 -14 27 -19 27 -20 8 -26 -22 -7 -20 -33 2 -48 8 -5 7 -8 -1 -8 -7 0
-16 7 -21 17 -7 11 -9 0 -8 -38 1 -40 -2 -53 -12 -51 -8 1 -11 -2 -7 -8 5 -8
11 -7 21 1 11 9 14 7 14 -15 0 -15 4 -25 9 -21 5 3 13 0 17 -6 4 -8 3 -9 -4
-5 -10 6 -23 -10 -34 -39 -1 -5 -7 -9 -11 -7 -5 1 -6 -2 -2 -8 3 -6 11 -7 17
-4 6 4 8 -1 6 -12 -2 -11 -10 -18 -18 -16 -10 2 -11 -1 -3 -10 5 -7 9 -25 8
-40 -1 -15 6 -36 16 -47 13 -14 15 -21 6 -24 -9 -3 -8 -8 3 -22 9 -11 10 -16
2 -11 -8 5 -12 0 -12 -14 0 -16 4 -20 16 -16 8 3 12 2 9 -4 -3 -6 -16 -10 -28
-11 l-22 0 23 -11 c24 -12 28 -23 10 -34 -6 -4 -8 -3 -4 4 3 6 2 14 -4 17 -6
4 -9 1 -8 -7 2 -7 -3 -12 -11 -10 -10 2 -12 -1 -5 -10 15 -20 12 -94 -4 -90
-8 1 -11 -2 -7 -8 5 -8 11 -7 21 1 11 9 14 7 14 -15 0 -15 4 -25 9 -21 5 3 13
0 17 -6 4 -8 3 -9 -4 -5 -10 6 -23 -10 -34 -39 -1 -5 -7 -9 -11 -7 -5 1 -6 -2
-2 -8 3 -6 11 -7 17 -4 6 4 8 -1 6 -12 -2 -11 -10 -18 -18 -16 -10 2 -11 -1
-3 -10 5 -7 9 -25 8 -40 -1 -15 6 -36 16 -47 13 -14 15 -21 6 -24 -9 -3 -8 -8
3 -22 9 -11 10 -16 3 -11 -9 5 -13 0 -13 -14 0 -16 4 -20 16 -16 8 3 12 2 9
-4 -3 -6 -16 -10 -28 -11 l-22 0 22 -11 c25 -12 29 -23 11 -34 -6 -4 -8 -3 -4
4 3 6 2 14 -4 17 -6 4 -9 1 -8 -7 2 -7 -3 -12 -11 -10 -10 2 -12 -1 -5 -10 15
-20 12 -94 -4 -90 -8 1 -11 -2 -7 -8 5 -8 11 -7 21 1 11 9 14 7 14 -15 0 -15
4 -25 9 -21 5 3 13 0 17 -6 4 -8 3 -9 -4 -5 -9 5 -33 -24 -36 -44 -1 -3 -5 -4
-9 -2 -5 1 -6 -2 -2 -8 3 -6 11 -7 17 -4 6 4 8 -1 6 -12 -2 -11 -10 -18 -18
-16 -10 2 -11 -1 -3 -10 5 -7 9 -25 8 -40 -1 -15 6 -36 16 -47 13 -14 15 -21
6 -24 -9 -3 -8 -8 3 -22 9 -11 10 -16 3 -11 -9 5 -13 0 -13 -14 0 -16 4 -20
16 -16 8 3 12 2 9 -4 -3 -6 -16 -10 -28 -11 l-22 0 22 -11 c25 -12 29 -23 11
-34 -6 -4 -8 -3 -4 4 3 6 2 14 -4 17 -6 4 -9 1 -8 -7 2 -7 -3 -12 -11 -10 -10
2 -12 -1 -5 -10 15 -20 12 -94 -4 -90 -8 1 -11 -2 -7 -8 5 -8 11 -7 21 1 11 9
14 7 14 -15 0 -15 4 -25 9 -21 5 3 12 1 15 -4 7 -10 -13 -9 -30 1 -6 4 -11 1
-11 -7 0 -8 4 -12 9 -9 4 3 8 0 8 -6 0 -6 5 -8 12 -4 7 4 8 3 4 -5 -4 -6 -13
-8 -19 -4 -7 4 -6 0 2 -10 7 -9 18 -14 25 -10 8 5 8 3 -1 -8 -6 -8 -11 -18
-11 -22 0 -5 -3 -11 -6 -14 -3 -3 -3 4 -1 16 2 14 0 19 -7 15 -7 -5 -8 -2 -3
6 5 9 4 11 -3 6 -7 -4 -12 -2 -12 4 0 6 -5 8 -11 5 -6 -5 -2 -13 11 -22 13 -9
18 -19 12 -26 -4 -7 -8 -39 -7 -72 1 -41 -3 -66 -14 -79 -9 -11 -10 -16 -4
-12 9 5 13 0 13 -13 0 -15 5 -19 17 -15 15 5 15 4 3 -5 -11 -7 -20 -5 -35 7
-16 14 -17 14 -7 1 6 -9 10 -19 7 -22 -3 -4 -2 -5 2 -2 3 3 17 -2 30 -10 13
-9 23 -11 23 -6 0 5 -5 11 -12 13 -8 3 -6 7 5 11 10 4 16 2 14 -6 -1 -7 6 -11
17 -9 13 2 16 -1 10 -10 -5 -9 -2 -8 11 2 11 9 16 10 11 3 -4 -8 -1 -13 9 -13
9 0 14 4 11 8 -3 5 1 9 9 9 8 0 11 -5 8 -11 -3 -6 0 -6 7 1 11 10 16 9 27 -5
9 -11 12 -12 11 -3 -2 7 3 16 11 19 10 3 11 0 5 -9 -6 -11 -3 -10 11 1 11 9
16 10 11 3 -4 -8 -1 -13 9 -13 9 0 14 4 11 8 -6 10 75 9 92 -1 7 -5 9 -14 5
-20 -4 -7 0 -6 10 2 18 15 23 26 7 16 -5 -3 -10 -1 -10 4 0 14 13 14 27 0 8
-8 13 -8 18 1 5 8 11 6 21 -7 9 -11 13 -13 12 -4 -2 7 3 16 11 19 10 3 11 0 5
-9 -6 -11 -3 -10 11 1 11 9 16 10 11 3 -4 -8 -1 -13 9 -13 9 0 14 4 11 8 -6
10 75 9 92 -1 7 -5 9 -14 5 -20 -4 -7 0 -6 10 2 18 15 23 26 7 16 -6 -3 -10
-1 -10 4 0 14 13 14 27 0 8 -8 13 -8 18 1 5 8 11 6 21 -7 9 -11 13 -13 12 -4
-2 7 3 16 11 19 10 3 11 0 5 -9 -6 -11 -3 -10 11 1 11 9 16 10 11 2 -4 -7 -1
-12 9 -12 9 0 14 4 11 8 -6 10 75 9 92 -1 7 -5 9 -14 5 -20 -4 -7 0 -6 10 2
18 15 23 26 7 16 -6 -3 -10 -1 -10 4 0 14 13 14 27 0 8 -8 13 -8 18 1 5 8 11
6 21 -7 9 -11 13 -13 12 -4 -2 7 3 16 11 19 10 3 11 0 5 -9 -6 -11 -3 -10 11
1 11 9 16 10 11 3 -4 -8 -1 -13 9 -13 9 0 14 4 11 8 -6 10 75 9 92 -1 7 -5 9
-14 5 -20 -4 -7 0 -6 10 2 18 15 23 26 7 16 -5 -3 -10 -1 -10 4 0 14 13 14 27
0 8 -8 13 -8 18 1 5 8 11 6 21 -7 9 -11 13 -13 12 -4 -2 7 3 16 11 19 10 3 11
0 5 -9 -6 -11 -3 -10 11 1 11 9 16 10 11 3 -4 -8 -1 -13 9 -13 9 0 14 4 11 8
-6 10 75 9 92 -1 7 -5 9 -14 5 -20 -4 -7 0 -6 10 2 18 15 23 26 7 16 -5 -3
-10 -1 -10 4 0 14 13 14 27 0 8 -8 13 -8 18 1 5 8 11 6 21 -7 9 -11 13 -13 12
-4 -2 7 3 16 11 19 10 3 11 0 5 -9 -6 -11 -3 -10 11 1 11 9 16 10 11 3 -4 -8
-1 -13 9 -13 9 0 14 4 11 8 -6 10 75 9 92 -1 7 -5 9 -14 5 -20 -4 -7 0 -6 10
2 18 15 23 26 7 16 -5 -3 -10 -1 -10 4 0 14 13 14 27 0 8 -8 13 -8 18 1 5 8
11 6 21 -7 9 -11 13 -13 12 -4 -2 7 3 16 11 19 10 3 11 0 5 -9 -6 -11 -3 -10
11 1 11 9 16 10 11 3 -4 -8 -1 -13 9 -13 9 0 14 4 11 8 -6 10 75 9 92 -1 7 -5
9 -14 5 -20 -4 -7 0 -6 10 2 18 15 23 26 7 16 -5 -3 -10 -1 -10 4 0 14 13 14
27 0 8 -8 13 -8 18 1 5 8 11 6 21 -7 9 -11 13 -13 12 -4 -2 7 3 16 11 19 10 3
11 0 5 -9 -6 -11 -3 -10 11 1 11 9 16 10 11 3 -4 -8 -1 -13 9 -13 9 0 14 3 12
8 -3 4 14 7 38 8 28 0 42 -4 38 -10 -4 -6 2 -4 12 4 11 9 16 10 11 3 -4 -8 -1
-13 9 -13 9 0 14 3 12 8 -3 4 15 7 39 8 29 0 44 -4 44 -12 0 -7 4 -15 9 -18 5
-4 7 4 4 16 -3 17 -2 19 5 9 8 -11 10 -11 15 0 4 10 6 10 6 2 1 -7 6 -13 12
-13 5 0 8 3 6 8 -3 4 10 7 29 8 24 1 34 -4 35 -15 0 -12 3 -11 9 4 6 13 9 15
9 5 1 -13 2 -13 11 0 6 10 10 11 10 3 0 -7 5 -13 11 -13 5 0 8 4 5 8 -2 4 9 8
25 7 16 0 29 -3 29 -7 0 -3 6 -5 13 -4 20 3 38 17 32 26 -3 5 -1 11 4 15 6 3
8 -6 6 -22 -4 -27 -4 -27 7 -6 12 24 28 31 28 11 0 -6 2 -9 5 -6 8 8 -6 39
-15 33 -5 -3 -8 3 -7 14 0 11 5 17 9 15 4 -3 8 0 8 5 0 10 -14 15 -32 12 -5 0
-8 4 -8 10 0 6 8 8 19 4 11 -3 23 0 27 6 4 7 3 9 -3 6 -12 -8 -46 37 -36 47 4
3 14 6 24 6 19 0 32 23 19 36 -15 16 -16 59 -2 56 8 -1 11 2 7 7 -7 12 -35 3
-35 -12 0 -6 -3 -7 -6 -4 -4 4 -2 13 5 20 9 11 8 17 -4 27 -18 15 -11 30 15
30 20 0 33 23 20 36 -15 16 -16 59 -2 56 8 -1 11 2 7 7 -7 12 -35 3 -35 -12 0
-6 -3 -7 -6 -4 -4 4 -2 13 5 20 9 11 8 17 -4 27 -18 15 -11 30 15 30 20 0 33
23 20 36 -15 16 -16 59 -2 56 8 -1 11 2 7 7 -7 12 -35 3 -35 -12 0 -6 -3 -7
-6 -4 -4 4 -2 13 5 20 9 11 8 17 -4 27 -18 15 -11 30 15 30 20 0 33 23 20 36
-15 16 -16 59 -2 56 8 -1 11 2 7 7 -7 12 -35 3 -35 -12 0 -6 -3 -7 -6 -4 -4 4
-2 13 5 20 9 11 8 17 -4 27 -18 15 -11 30 15 30 20 0 33 23 20 36 -15 16 -16
59 -2 56 8 -1 11 2 7 7 -7 12 -35 3 -35 -12 0 -6 -3 -7 -6 -4 -4 4 -2 13 5 20
9 11 8 17 -4 27 -18 15 -11 30 15 30 20 0 33 23 20 36 -15 16 -16 59 -2 56 8
-1 11 2 7 7 -7 12 -35 3 -35 -12 0 -6 -3 -7 -6 -4 -4 4 -2 13 5 20 9 11 8 17
-4 27 -18 15 -11 30 15 30 20 0 33 23 20 36 -15 16 -16 59 -2 56 8 -1 11 2 7
7 -7 12 -35 3 -35 -12 0 -6 -3 -7 -6 -4 -4 4 -2 13 5 20 9 11 8 17 -4 27 -18
15 -11 30 15 30 20 0 33 23 20 36 -15 16 -16 59 -2 56 8 -1 11 2 7 7 -7 12
-35 3 -35 -12 0 -6 -3 -7 -6 -4 -4 4 -2 13 5 20 9 11 8 17 -4 27 -18 15 -11
30 15 30 20 0 33 23 20 36 -15 16 -16 59 -2 56 8 -1 11 2 7 7 -7 12 -35 3 -35
-12 0 -6 -3 -7 -6 -4 -4 4 -2 13 5 20 9 11 8 17 -4 27 -18 15 -11 30 15 30 20
0 33 23 20 36 -15 16 -16 59 -2 56 8 -1 11 2 7 7 -7 12 -35 3 -35 -12 0 -6 -3
-7 -6 -4 -4 4 -2 13 5 20 9 11 8 17 -4 27 -18 15 -11 30 15 30 20 0 33 23 20
36 -15 16 -16 59 -2 56 8 -1 11 2 7 7 -7 12 -35 3 -35 -12 0 -6 -3 -7 -6 -4
-4 4 -2 13 5 20 9 11 8 17 -4 27 -18 15 -11 30 15 30 20 0 33 23 20 36 -15 16
-16 59 -2 56 8 -1 11 2 7 7 -7 12 -35 3 -35 -12 0 -6 -3 -8 -6 -4 -3 3 -2 12
2 19 15 24 12 49 -5 43 -13 -4 -13 -2 1 8 10 8 15 17 11 20 -3 4 -1 7 5 7 8 0
10 -11 7 -30 -3 -16 -1 -30 4 -30 15 0 23 18 11 25 -7 4 -7 13 0 26 6 10 7 19
3 18 -22 -4 -32 3 -30 20 0 11 5 17 9 15 4 -3 8 -1 8 4 0 6 -7 13 -16 16 -17
6 -10 26 9 26 7 0 6 -4 -3 -10 -12 -7 -10 -9 7 -7 14 1 19 5 14 12 -5 5 -7 17
-6 25 2 10 -5 16 -19 17 -21 2 -21 2 -2 -13 11 -8 15 -14 9 -14 -14 0 -34 25
-26 33 3 4 14 7 24 7 19 0 32 23 19 36 -5 5 -10 20 -12 34 -2 18 1 24 12 22
12 -3 12 -1 3 9 -8 8 -9 18 -2 30 7 15 6 17 -5 13 -8 -3 -13 -14 -11 -25 2
-11 0 -17 -6 -14 -5 4 -9 17 -9 31 0 17 4 23 12 18 7 -4 8 -3 4 4 -10 16 -15
15 -22 -3z m6 -67 c0 -6 -3 -8 -7 -5 -3 4 -13 1 -22 -6 -14 -11 -14 -10 -2 6
15 20 31 22 31 5z m-99 -15 c13 -16 12 -17 -3 -4 -10 7 -18 15 -18 17 0 8 8 3
21 -13z m122 -55 c-2 -5 -10 -8 -16 -8 -7 0 -6 4 3 10 10 6 11 10 3 10 -7 0
-13 10 -13 23 0 22 1 22 14 -3 7 -14 11 -28 9 -32z m-337 -137 c-4 -5 -3 -11
1 -14 5 -2 2 -2 -4 -1 -7 2 -13 -1 -13 -6 0 -6 -5 -10 -12 -10 -6 0 -3 9 7 20
19 21 30 27 21 11z m-74 -88 c-6 -3 -9 -10 -6 -15 4 -7 2 -8 -5 -4 -9 6 -9 11
0 22 6 8 15 12 18 8 3 -4 0 -9 -7 -11z m411 -95 c-2 -5 -10 -8 -16 -8 -7 0 -6
4 3 10 10 6 11 10 3 10 -7 0 -13 10 -13 23 0 22 1 22 14 -3 7 -14 11 -28 9
-32z m-2243 -8 c0 -5 -5 -10 -11 -10 -5 0 -7 5 -4 10 3 6 8 10 11 10 2 0 4 -4
4 -10z m1712 -7 c-6 -3 -9 -10 -6 -15 4 -7 2 -8 -5 -4 -9 6 -9 11 0 22 6 8 15
12 18 8 3 -4 0 -9 -7 -11z m28 -13 c0 -5 -5 -10 -11 -10 -5 0 -7 5 -4 10 3 6
8 10 11 10 2 0 4 -4 4 -10z m-1903 -80 c0 -17 -4 -30 -9 -30 -5 0 -6 5 -3 10
3 6 2 10 -2 10 -5 0 -9 11 -9 24 0 14 5 22 11 19 7 -2 12 -17 12 -33z m1828
28 c5 4 5 1 1 -6 -4 -7 -10 -10 -14 -8 -10 6 -32 -21 -24 -30 4 -4 1 -4 -6 0
-11 7 -10 11 2 25 9 10 13 22 9 26 -5 5 -1 4 8 -3 9 -6 20 -8 24 -4z m578 -80
c-2 -5 -10 -8 -16 -8 -7 0 -6 4 3 10 10 6 11 10 3 10 -7 0 -13 10 -13 23 0 22
1 22 14 -3 7 -14 11 -28 9 -32z m-2403 -88 c0 -5 -2 -10 -4 -10 -3 0 -8 5 -11
10 -3 6 -1 10 4 10 6 0 11 -4 11 -10z m-8 -32 c-9 -9 -8 -14 4 -22 13 -10 13
-12 -4 -13 -11 -1 -19 4 -18 10 2 16 16 37 24 37 3 0 1 -5 -6 -12z m2411 -40
c-2 -5 -10 -8 -16 -8 -7 0 -6 4 3 10 10 6 11 10 3 10 -7 0 -13 10 -13 23 0 22
1 22 14 -3 7 -14 11 -28 9 -32z m-813 22 c0 -5 -5 -10 -11 -10 -5 0 -7 5 -4
10 3 6 8 10 11 10 2 0 4 -4 4 -10z m-1596 -42 c-3 -5 0 -16 8 -25 12 -15 11
-15 -8 -3 -23 14 -28 37 -8 37 7 0 11 -4 8 -9z m1551 2 c-3 -5 -1 -10 6 -10 7
0 10 -3 6 -6 -9 -9 -28 6 -22 17 4 5 8 9 11 9 3 0 2 -4 -1 -10z m-994 -83
c-10 -9 -11 -8 -5 6 3 10 9 15 12 12 3 -3 0 -11 -7 -18z m1852 -59 c-2 -5 -10
-8 -16 -8 -7 0 -6 4 3 10 10 6 11 10 3 10 -7 0 -13 10 -13 23 0 22 1 22 14 -3
7 -14 11 -28 9 -32z m-1778 12 c3 -5 1 -10 -4 -10 -6 0 -11 5 -11 10 0 6 2 10
4 10 3 0 8 -4 11 -10z m55 -54 c0 -3 -4 -8 -10 -11 -5 -3 -10 -1 -10 4 0 6 5
11 10 11 6 0 10 -2 10 -4z m-692 -27 c-12 -8 -4 -13 16 -10 5 1 4 -4 -2 -12
-7 -8 -10 -22 -6 -31 3 -9 1 -16 -6 -16 -6 0 -8 5 -5 10 3 6 2 10 -2 10 -5 0
-9 15 -9 34 0 24 4 32 14 28 11 -4 11 -6 0 -13z m737 -27 c-3 -3 -11 0 -18 7
-9 10 -8 11 6 5 10 -3 15 -9 12 -12z m1678 -64 c-2 -5 -10 -8 -16 -8 -7 0 -6
4 3 10 10 6 11 10 3 10 -7 0 -13 10 -13 23 0 22 1 22 14 -3 7 -14 11 -28 9
-32z m-2403 -88 c0 -5 -2 -10 -4 -10 -3 0 -8 5 -11 10 -3 6 -1 10 4 10 6 0 11
-4 11 -10z m-8 -32 c-9 -9 -8 -14 4 -22 13 -10 13 -12 -4 -13 -11 -1 -19 4
-18 10 2 16 16 37 24 37 3 0 1 -5 -6 -12z m2411 -40 c-2 -5 -10 -8 -16 -8 -7
0 -6 4 3 10 10 6 11 10 3 10 -7 0 -13 10 -13 23 0 22 1 22 14 -3 7 -14 11 -28
9 -32z m-1283 22 c0 -5 -5 -10 -11 -10 -5 0 -7 5 -4 10 3 6 8 10 11 10 2 0 4
-4 4 -10z m-1126 -42 c-3 -5 0 -16 8 -25 12 -15 11 -15 -8 -3 -23 14 -28 37
-8 37 7 0 11 -4 8 -9z m991 -8 c-3 -5 -12 -10 -18 -10 -7 0 -6 4 3 10 19 12
23 12 15 0z m1418 -132 c-2 -5 -10 -8 -16 -8 -7 0 -6 4 3 10 10 6 11 10 3 10
-7 0 -13 10 -13 23 0 22 1 22 14 -3 7 -14 11 -28 9 -32z m-2415 -69 c-12 -8
-4 -13 16 -10 5 1 4 -4 -2 -12 -7 -8 -10 -22 -6 -31 3 -9 1 -16 -6 -16 -6 0
-8 5 -5 10 3 6 2 10 -2 10 -5 0 -9 15 -9 34 0 24 4 32 14 28 11 -4 11 -6 0
-13z m2415 -91 c-2 -5 -10 -8 -16 -8 -7 0 -6 4 3 10 10 6 11 10 3 10 -7 0 -13
10 -13 23 0 22 1 22 14 -3 7 -14 11 -28 9 -32z m-2403 -88 c0 -5 -2 -10 -4
-10 -3 0 -8 5 -11 10 -3 6 -1 10 4 10 6 0 11 -4 11 -10z m-8 -32 c-9 -9 -8
-14 4 -22 13 -10 13 -12 -4 -13 -11 -1 -19 4 -18 10 2 16 16 37 24 37 3 0 1
-5 -6 -12z m2411 -40 c-2 -5 -10 -8 -16 -8 -7 0 -6 4 3 10 10 6 11 10 3 10 -7
0 -13 10 -13 23 0 22 1 22 14 -3 7 -14 11 -28 9 -32z m-2409 -20 c-3 -5 0 -16
8 -25 12 -15 11 -15 -8 -3 -23 14 -28 37 -8 37 7 0 11 -4 8 -9z m2409 -140
c-2 -5 -10 -8 -16 -8 -7 0 -6 4 3 10 10 6 11 10 3 10 -7 0 -13 10 -13 23 0 22
1 22 14 -3 7 -14 11 -28 9 -32z m-2415 -69 c-12 -8 -4 -13 16 -10 5 1 4 -4 -2
-12 -7 -8 -10 -22 -6 -31 3 -9 1 -16 -6 -16 -6 0 -8 5 -5 10 3 6 2 10 -2 10
-5 0 -9 15 -9 34 0 24 4 32 14 28 11 -4 11 -6 0 -13z m2415 -91 c-2 -5 -10 -8
-16 -8 -7 0 -6 4 3 10 10 6 11 10 3 10 -7 0 -13 10 -13 23 0 22 1 22 14 -3 7
-14 11 -28 9 -32z m0 -160 c-2 -5 -10 -8 -16 -8 -7 0 -6 4 3 10 10 6 11 10 3
10 -7 0 -13 10 -13 23 0 22 1 22 14 -3 7 -14 11 -28 9 -32z m-2409 11 c-8 -14
-21 -11 -21 5 0 8 6 12 14 9 7 -3 10 -9 7 -14z m7 -23 c-6 -8 -11 -18 -10 -22
1 -5 0 -11 -1 -14 -10 -27 -7 -41 8 -36 13 5 12 2 -2 -9 -11 -8 -14 -15 -8
-15 10 0 10 -3 0 -14 -15 -15 -32 0 -20 19 4 5 7 17 7 25 0 8 4 21 8 28 5 6 4
12 -1 12 -5 0 -9 7 -9 15 0 8 4 12 8 9 4 -2 10 0 14 6 3 5 9 10 12 10 3 0 0
-6 -6 -14z m2336 -161 c0 -8 -4 -12 -9 -9 -5 3 -6 10 -3 15 9 13 12 11 12 -6z"/>
<path d="M2230 2256 c0 -2 7 -7 16 -10 8 -3 12 -2 9 4 -6 10 -25 14 -25 6z"/>
<path d="M2530 2200 c-9 -6 -10 -10 -3 -10 6 0 15 5 18 10 8 12 4 12 -15 0z"/>
<path d="M116 2158 c3 -5 10 -6 15 -3 13 9 11 12 -6 12 -8 0 -12 -4 -9 -9z"/>
<path d="M147 2156 c-4 -10 -1 -13 8 -9 8 3 12 9 9 14 -7 12 -11 11 -17 -5z"/>
<path d="M2070 2080 c0 -5 -8 -7 -17 -4 -14 5 -15 4 -4 -4 16 -12 44 -4 35 9
-7 12 -14 11 -14 -1z"/>
<path d="M89 2003 c-12 -16 -12 -17 2 -6 9 7 20 9 24 5 5 -4 5 -1 1 6 -9 16
-11 15 -27 -5z"/>
<path d="M2510 1965 c13 -16 30 -16 33 -1 1 5 -9 11 -22 13 -20 3 -22 1 -11
-12z"/>
<path d="M416 1907 c3 -10 9 -15 12 -12 3 3 0 11 -7 18 -10 9 -11 8 -5 -6z"/>
<path d="M1833 1850 c-2 -24 10 -26 28 -3 10 11 10 14 2 9 -7 -4 -13 -2 -13 3
0 20 -16 11 -17 -9z"/>
<path d="M93 1815 c0 -8 4 -12 9 -9 5 3 6 10 3 15 -9 13 -12 11 -12 -6z"/>
<path d="M2510 1805 c13 -16 30 -16 33 -1 1 5 -9 11 -22 13 -20 3 -22 1 -11
-12z"/>
<path d="M2510 1645 c13 -16 30 -16 33 -1 1 5 -9 11 -22 13 -20 3 -22 1 -11
-12z"/>
<path d="M93 1615 c0 -8 4 -12 9 -9 5 3 6 10 3 15 -9 13 -12 11 -12 -6z"/>
<path d="M1495 1512 c3 -3 0 -11 -7 -19 -6 -7 -9 -15 -7 -17 2 -2 12 6 21 18
13 18 14 23 2 23 -8 0 -12 -3 -9 -5z"/>
<path d="M1457 1489 c4 -13 8 -18 11 -10 2 7 -1 18 -6 23 -8 8 -9 4 -5 -13z"/>
<path d="M2510 1485 c13 -16 30 -16 33 -1 1 5 -9 11 -22 13 -20 3 -22 1 -11
-12z"/>
<path d="M93 1335 c0 -8 4 -12 9 -9 5 3 6 10 3 15 -9 13 -12 11 -12 -6z"/>
<path d="M2510 1325 c13 -16 30 -16 33 -1 1 5 -9 11 -22 13 -20 3 -22 1 -11
-12z"/>
<path d="M1195 1220 c-3 -5 -1 -10 4 -10 6 0 11 5 11 10 0 6 -2 10 -4 10 -3 0
-8 -4 -11 -10z"/>
<path d="M2510 1165 c13 -16 30 -16 33 -1 1 5 -9 11 -22 13 -20 3 -22 1 -11
-12z"/>
<path d="M93 1135 c0 -8 4 -12 9 -9 5 3 6 10 3 15 -9 13 -12 11 -12 -6z"/>
<path d="M2510 1005 c13 -16 30 -16 33 -1 1 5 -9 11 -22 13 -20 3 -22 1 -11
-12z"/>
<path d="M93 855 c0 -8 4 -12 9 -9 5 3 6 10 3 15 -9 13 -12 11 -12 -6z"/>
<path d="M2510 845 c13 -16 30 -16 33 -1 1 5 -9 11 -22 13 -20 3 -22 1 -11
-12z"/>
<path d="M2510 685 c13 -16 30 -16 33 -1 1 5 -9 11 -22 13 -20 3 -22 1 -11
-12z"/>
<path d="M93 655 c0 -8 4 -12 9 -9 5 3 6 10 3 15 -9 13 -12 11 -12 -6z"/>
<path d="M2510 525 c13 -16 30 -16 33 -1 1 5 -9 11 -22 13 -20 3 -22 1 -11
-12z"/>
<path d="M2510 365 c13 -16 30 -16 33 -1 1 5 -9 11 -22 13 -20 3 -22 1 -11
-12z"/>
<path d="M2510 205 c13 -16 30 -16 33 -1 1 5 -9 11 -22 13 -20 3 -22 1 -11
-12z"/>
</g>
</svg>
